<svg width="1302" height="1302" xmlns="http://www.w3.org/2000/svg" xmlns:xlink="http://www.w3.org/1999/xlink" xml:space="preserve" overflow="hidden"><defs><clipPath id="clip0"><rect x="1977" y="14" width="1302" height="1302"/></clipPath></defs><g clip-path="url(#clip0)" transform="translate(-1977 -14)"><path d="M2168.97 1124.17 2274.43 869.147 2000.84 832.963 2219.69 664.833 2000.84 496.702 2274.43 460.519 2168.97 205.492 2424 310.95 2460.18 37.3611 2628.31 256.204 2796.44 37.3611 2832.63 310.95 3087.65 205.492 2982.2 460.519 3255.79 496.702 3036.94 664.833 3255.79 832.963 2982.2 869.147 3087.65 1124.17 2832.63 1018.72 2796.44 1292.3 2628.31 1073.46 2460.18 1292.3 2424 1018.72 2168.97 1124.17Z" stroke="#AFCC48" stroke-width="45.8333" stroke-linecap="round" stroke-linejoin="round" stroke-miterlimit="10" fill="#AFCC48" fill-rule="evenodd"/><path d="M2260.84 1032.31C2057.89 829.356 2057.89 500.31 2260.84 297.36 2463.79 94.4103 2792.84 94.4103 2995.79 297.36 3198.74 500.31 3198.74 829.356 2995.79 1032.31 2792.84 1235.26 2463.79 1235.26 2260.84 1032.31Z" fill="#AFCC48" fill-rule="evenodd"/><path d="M2306.77 894.503C2154.56 742.291 2154.56 495.506 2306.77 343.294 2458.99 191.081 2705.77 191.081 2857.98 343.294 3010.2 495.506 3010.2 742.291 2857.98 894.503 2705.77 1046.72 2458.99 1046.72 2306.77 894.503Z" fill="#FFFFFF" fill-rule="evenodd"/><path d="M2352.71 1032.31C2175.13 854.724 2175.13 566.809 2352.71 389.228 2530.29 211.647 2818.21 211.647 2995.79 389.228 3173.37 566.809 3173.37 854.724 2995.79 1032.31 2818.21 1209.89 2530.29 1209.89 2352.71 1032.31Z" fill="#AFCC48" fill-rule="evenodd"/></g></svg>