<svg width="1301" height="1301" xmlns="http://www.w3.org/2000/svg" xmlns:xlink="http://www.w3.org/1999/xlink" xml:space="preserve" overflow="hidden"><defs><clipPath id="clip0"><rect x="1873" y="805" width="1301" height="1301"/></clipPath></defs><g clip-path="url(#clip0)" transform="translate(-1873 -805)"><path d="M2064.13 1914.8 2169.59 1659.77 1896 1623.59 2114.84 1455.46 1896 1287.33 2169.59 1251.14 2064.13 996.116 2319.16 1101.57 2355.34 827.986 2523.47 1046.83 2691.6 827.986 2727.78 1101.57 2982.81 996.116 2877.35 1251.14 3150.94 1287.33 2932.1 1455.46 3150.94 1623.59 2877.35 1659.77 2982.81 1914.8 2727.78 1809.34 2691.6 2082.93 2523.47 1864.09 2355.34 2082.93 2319.16 1809.34 2064.13 1914.8Z" stroke="#E69C37" stroke-width="45.8333" stroke-linecap="round" stroke-linejoin="round" stroke-miterlimit="10" fill="#E69C37" fill-rule="evenodd"/><path d="M2156 1822.93C1953.05 1619.98 1953.05 1290.93 2156 1087.98 2358.95 885.035 2687.99 885.035 2890.94 1087.98 3093.89 1290.93 3093.89 1619.98 2890.94 1822.93 2687.99 2025.88 2358.95 2025.88 2156 1822.93Z" fill="#E69C37" fill-rule="evenodd"/><path d="M2201.93 1685.13C2049.72 1532.92 2049.72 1286.13 2201.93 1133.92 2354.14 981.706 2600.93 981.706 2753.14 1133.92 2905.35 1286.13 2905.35 1532.92 2753.14 1685.13 2600.93 1837.34 2354.14 1837.34 2201.93 1685.13Z" fill="#FFFFFF" fill-rule="evenodd"/><path d="M2247.86 1822.93C2070.28 1645.35 2070.28 1357.43 2247.86 1179.85 2425.45 1002.27 2713.36 1002.27 2890.94 1179.85 3068.52 1357.43 3068.52 1645.35 2890.94 1822.93 2713.36 2000.51 2425.45 2000.51 2247.86 1822.93Z" fill="#E69C37" fill-rule="evenodd"/></g></svg>